<?xml version="1.0" encoding="UTF-8"?>
<svg xmlns="http://www.w3.org/2000/svg" xmlns:xlink="http://www.w3.org/1999/xlink" width="538pt" height="378pt" viewBox="0 0 538 378" version="1.1">
<defs>
<filter id="alpha" filterUnits="objectBoundingBox" x="0%" y="0%" width="100%" height="100%">
  <feColorMatrix type="matrix" in="SourceGraphic" values="0 0 0 0 1 0 0 0 0 1 0 0 0 0 1 0 0 0 1 0"/>
</filter>
<mask id="mask0">
  <g filter="url(#alpha)">
<rect x="0" y="0" width="538" height="378" style="fill:rgb(0%,0%,0%);fill-opacity:0.101961;stroke:none;"/>
  </g>
</mask>
<clipPath id="clip1">
  <rect width="538" height="378"/>
</clipPath>
<g id="surface6" clip-path="url(#clip1)">
<path style=" stroke:none;fill-rule:nonzero;fill:rgb(0%,0%,0%);fill-opacity:1;" d="M 72.367188 301.300781 L 90.789062 301.300781 L 136.179688 283.515625 C 136.179688 283.515625 168.417969 270.339844 165.785156 295.375 C 163.15625 320.40625 158.550781 354.003906 158.550781 354.003906 C 158.550781 354.003906 144.078125 347.414062 136.179688 349.390625 C 128.285156 351.367188 133.550781 309.207031 133.550781 309.207031 C 133.550781 309.207031 69.078125 340.167969 63.15625 336.214844 C 57.234375 332.265625 55.921875 304.597656 55.921875 304.597656 Z M 72.367188 301.300781 "/>
</g>
<mask id="mask1">
  <g filter="url(#alpha)">
<rect x="0" y="0" width="538" height="378" style="fill:rgb(0%,0%,0%);fill-opacity:0.101961;stroke:none;"/>
  </g>
</mask>
<clipPath id="clip2">
  <rect width="538" height="378"/>
</clipPath>
<g id="surface9" clip-path="url(#clip2)">
<path style=" stroke:none;fill-rule:nonzero;fill:rgb(0%,0%,0%);fill-opacity:1;" d="M 101.390625 243.539062 L 123.683594 275.609375 L 175.65625 319.089844 C 175.65625 319.089844 223.679688 330.289062 217.101562 338.191406 C 210.523438 346.097656 170.390625 330.289062 170.390625 330.289062 C 170.390625 330.289062 110.523438 286.808594 108.550781 283.515625 C 106.578125 280.222656 84.867188 249.261719 84.867188 249.261719 Z M 101.390625 243.539062 "/>
</g>
<mask id="mask2">
  <g filter="url(#alpha)">
<rect x="0" y="0" width="538" height="378" style="fill:rgb(0%,0%,0%);fill-opacity:0.101961;stroke:none;"/>
  </g>
</mask>
<clipPath id="clip3">
  <rect width="538" height="378"/>
</clipPath>
<g id="surface12" clip-path="url(#clip3)">
<path style=" stroke:none;fill-rule:nonzero;fill:rgb(0%,0%,0%);fill-opacity:1;" d="M 88.15625 217.640625 L 102.628906 245.96875 C 102.628906 245.96875 99.339844 259.800781 94.078125 261.117188 C 88.8125 262.4375 66.445312 243.992188 66.445312 243.992188 Z M 88.15625 217.640625 "/>
</g>
<mask id="mask3">
  <g filter="url(#alpha)">
<rect x="0" y="0" width="538" height="378" style="fill:rgb(0%,0%,0%);fill-opacity:0.101961;stroke:none;"/>
  </g>
</mask>
<clipPath id="clip4">
  <rect width="538" height="378"/>
</clipPath>
<g id="surface15" clip-path="url(#clip4)">
<path style=" stroke:none;fill-rule:nonzero;fill:rgb(0%,0%,0%);fill-opacity:1;" d="M 237.496094 345.4375 L 238.8125 363.882812 L 209.207031 363.882812 L 209.207031 345.4375 Z M 237.496094 345.4375 "/>
</g>
<mask id="mask4">
  <g filter="url(#alpha)">
<rect x="0" y="0" width="538" height="378" style="fill:rgb(0%,0%,0%);fill-opacity:0.101961;stroke:none;"/>
  </g>
</mask>
<clipPath id="clip5">
  <rect width="538" height="378"/>
</clipPath>
<g id="surface18" clip-path="url(#clip5)">
<path style=" stroke:none;fill-rule:nonzero;fill:rgb(0%,0%,0%);fill-opacity:1;" d="M 199.339844 351.367188 L 199.515625 351.332031 L 198.679688 359.273438 L 182.234375 359.273438 L 182.234375 351.367188 Z M 199.339844 351.367188 "/>
</g>
<mask id="mask5">
  <g filter="url(#alpha)">
<rect x="0" y="0" width="538" height="378" style="fill:rgb(0%,0%,0%);fill-opacity:0.101961;stroke:none;"/>
  </g>
</mask>
<clipPath id="clip6">
  <rect width="538" height="378"/>
</clipPath>
<g id="surface21" clip-path="url(#clip6)">
<path style=" stroke:none;fill-rule:nonzero;fill:rgb(0%,0%,0%);fill-opacity:1;" d="M 176.96875 370.472656 C 177.628906 372.449219 245.390625 369.8125 246.046875 369.15625 C 246.621094 368.328125 247.105469 367.445312 247.496094 366.519531 L 176.925781 366.519531 C 176.839844 368.609375 176.839844 370.078125 176.96875 370.472656 Z M 176.96875 370.472656 "/>
</g>
</defs>
<g id="surface1">
<path style=" stroke:none;fill-rule:nonzero;fill:rgb(24.705882%,23.921569%,33.72549%);fill-opacity:1;" d="M 432.074219 351.675781 C 428.582031 364.992188 416.34375 373.316406 416.34375 373.316406 C 416.34375 373.316406 409.769531 360.046875 413.261719 346.730469 C 416.753906 333.414062 428.988281 325.089844 428.988281 325.089844 C 428.988281 325.089844 435.566406 338.359375 432.074219 351.675781 Z M 432.074219 351.675781 "/>
<path style=" stroke:none;fill-rule:nonzero;fill:rgb(0%,58.823529%,83.921569%);fill-opacity:1;" d="M 426.777344 348.859375 C 416.996094 358.535156 415.898438 373.308594 415.898438 373.308594 C 415.898438 373.308594 430.664062 372.390625 440.445312 362.714844 C 450.226562 353.039062 451.320312 338.265625 451.320312 338.265625 C 451.320312 338.265625 436.558594 339.183594 426.777344 348.859375 Z M 426.777344 348.859375 "/>
<path style=" stroke:none;fill-rule:nonzero;fill:rgb(18.431373%,18.039216%,25.490196%);fill-opacity:1;" d="M 72.367188 301.300781 L 90.789062 301.300781 L 136.179688 283.515625 C 136.179688 283.515625 168.417969 270.339844 165.785156 295.375 C 163.15625 320.40625 158.550781 354.003906 158.550781 354.003906 C 158.550781 354.003906 144.078125 347.414062 136.179688 349.390625 C 128.285156 351.367188 133.550781 309.207031 133.550781 309.207031 C 133.550781 309.207031 69.078125 340.167969 63.15625 336.214844 C 57.234375 332.265625 55.921875 304.597656 55.921875 304.597656 Z M 72.367188 301.300781 "/>
<use xlink:href="#surface6" mask="url(#mask0)"/>
<path style=" stroke:none;fill-rule:nonzero;fill:rgb(62.745098%,38.039216%,41.568627%);fill-opacity:1;" d="M 101.390625 243.539062 L 123.683594 275.609375 L 175.65625 319.089844 C 175.65625 319.089844 223.679688 330.289062 217.101562 338.191406 C 210.523438 346.097656 170.390625 330.289062 170.390625 330.289062 C 170.390625 330.289062 110.523438 286.808594 108.550781 283.515625 C 106.578125 280.222656 84.867188 249.261719 84.867188 249.261719 Z M 101.390625 243.539062 "/>
<use xlink:href="#surface9" mask="url(#mask1)"/>
<path style=" stroke:none;fill-rule:nonzero;fill:rgb(81.568627%,80.392157%,88.235294%);fill-opacity:1;" d="M 88.15625 217.640625 L 102.628906 245.96875 C 102.628906 245.96875 99.339844 259.800781 94.078125 261.117188 C 88.8125 262.4375 66.445312 243.992188 66.445312 243.992188 Z M 88.15625 217.640625 "/>
<use xlink:href="#surface12" mask="url(#mask2)"/>
<path style=" stroke:none;fill-rule:nonzero;fill:rgb(18.431373%,18.039216%,25.490196%);fill-opacity:1;" d="M 264.726562 286.636719 L 269 304.296875 C 269.046875 304.492188 269.042969 304.699219 268.980469 304.890625 L 249.585938 365.578125 C 249.425781 366.074219 248.945312 366.390625 248.429688 366.339844 C 247.910156 366.289062 247.5 365.882812 247.441406 365.367188 L 244.757812 341.726562 C 244.742188 341.566406 244.757812 341.410156 244.804688 341.257812 L 262.609375 286.554688 C 262.761719 286.085938 263.207031 285.773438 263.699219 285.792969 C 264.191406 285.8125 264.609375 286.15625 264.726562 286.636719 Z M 264.726562 286.636719 "/>
<path style=" stroke:none;fill-rule:nonzero;fill:rgb(94.901961%,94.901961%,94.901961%);fill-opacity:1;" d="M 263.152344 288.128906 L 267.101562 303.277344 L 249.996094 358.613281 L 246.046875 341.488281 Z M 263.152344 288.128906 "/>
<path style=" stroke:none;fill-rule:nonzero;fill:rgb(18.431373%,18.039216%,25.490196%);fill-opacity:1;" d="M 176.96875 370.472656 C 177.628906 372.449219 245.390625 369.8125 246.046875 369.15625 C 246.621094 368.328125 247.105469 367.445312 247.496094 366.519531 C 248.113281 365.203125 248.679688 363.882812 248.679688 363.882812 L 246.046875 342.554688 L 178.945312 340.167969 C 178.945312 340.167969 177.265625 358.246094 176.925781 366.519531 C 176.839844 368.609375 176.839844 370.078125 176.96875 370.472656 Z M 176.96875 370.472656 "/>
<use xlink:href="#surface15" mask="url(#mask3)"/>
<use xlink:href="#surface18" mask="url(#mask4)"/>
<use xlink:href="#surface21" mask="url(#mask5)"/>
<path style=" stroke:none;fill-rule:nonzero;fill:rgb(62.745098%,38.039216%,41.568627%);fill-opacity:1;" d="M 127.628906 178.773438 C 127.628906 195.144531 114.375 208.417969 98.023438 208.417969 C 81.675781 208.417969 68.417969 195.144531 68.417969 178.773438 C 68.417969 162.402344 81.675781 149.128906 98.023438 149.128906 C 114.375 149.128906 127.628906 162.402344 127.628906 178.773438 Z M 127.628906 178.773438 "/>
<path style=" stroke:none;fill-rule:nonzero;fill:rgb(62.745098%,38.039216%,41.568627%);fill-opacity:1;" d="M 96.050781 205.125 C 96.050781 205.125 86.183594 222.253906 84.207031 231.476562 C 82.234375 240.699219 54.605469 213.03125 54.605469 213.03125 L 50.984375 203.476562 C 50.984375 203.476562 76.972656 191.289062 75 181.410156 C 73.023438 171.527344 96.050781 205.125 96.050781 205.125 Z M 96.050781 205.125 "/>
<path style=" stroke:none;fill-rule:nonzero;fill:rgb(62.745098%,38.039216%,41.568627%);fill-opacity:1;" d="M 101.3125 256.507812 L 128.285156 292.082031 L 192.757812 340.167969 C 192.757812 340.167969 239.46875 350.050781 228.941406 357.296875 C 218.417969 364.542969 188.152344 350.710938 188.152344 350.710938 C 188.152344 350.710938 123.023438 315.796875 109.207031 301.300781 C 95.394531 286.808594 69.734375 262.4375 69.734375 262.4375 Z M 101.3125 256.507812 "/>
<path style=" stroke:none;fill-rule:nonzero;fill:rgb(18.431373%,18.039216%,25.490196%);fill-opacity:1;" d="M 65.128906 311.84375 L 73.023438 324.359375 L 120.140625 309.515625 C 130.476562 306.261719 141.816406 307.457031 150.984375 313.242188 C 159.207031 318.429688 164.46875 326.664062 152.628906 338.851562 C 128.945312 363.226562 113.15625 350.050781 113.15625 350.050781 C 113.15625 350.050781 33.550781 387.597656 20.394531 369.15625 C 7.238281 350.710938 6.578125 341.488281 6.578125 341.488281 C 6.578125 341.488281 57.234375 309.867188 65.128906 311.84375 Z M 65.128906 311.84375 "/>
<path style=" stroke:none;fill-rule:nonzero;fill:rgb(81.568627%,80.392157%,88.235294%);fill-opacity:1;" d="M 163.8125 355.320312 C 163.8125 355.320312 184.863281 369.15625 159.867188 375.742188 C 134.867188 382.328125 116.445312 373.105469 116.445312 373.105469 C 116.445312 373.105469 94.734375 373.105469 94.734375 361.90625 C 94.734375 350.710938 101.972656 349.390625 101.972656 349.390625 L 124.339844 352.683594 C 124.339844 352.683594 151.3125 345.4375 163.8125 355.320312 Z M 163.8125 355.320312 "/>
<path style=" stroke:none;fill-rule:nonzero;fill:rgb(18.431373%,18.039216%,25.490196%);fill-opacity:1;" d="M 122.3125 171.316406 C 124.324219 172.21875 126.324219 173.28125 128.515625 173.542969 C 130.703125 173.804688 133.199219 173.039062 134.234375 171.085938 C 134.796875 170.035156 134.859375 168.796875 134.886719 167.601562 C 134.964844 163.984375 134.703125 160.074219 132.414062 157.277344 C 130.957031 155.492188 128.832031 154.371094 127.324219 152.632812 C 126.242188 151.386719 125.523438 149.878906 124.75 148.421875 C 121.816406 142.90625 117.472656 137.605469 111.4375 136.015625 C 108.917969 135.351562 106.273438 135.382812 103.667969 135.417969 L 88.46875 135.632812 C 86.011719 135.667969 83.511719 135.707031 81.160156 136.421875 C 76.265625 137.902344 72.703125 142.023438 69.441406 145.960938 C 67 148.910156 64.554688 151.886719 62.722656 155.246094 C 60.097656 160.152344 58.769531 165.648438 58.867188 171.210938 C 58.84375 172.636719 59.03125 174.0625 59.414062 175.4375 C 59.859375 176.695312 60.414062 177.917969 61.070312 179.082031 C 63.921875 184.6875 65.613281 191.691406 62.402344 197.097656 C 67.980469 194.816406 73.496094 191.828125 77.175781 187.050781 C 78.820312 184.914062 80.109375 182.414062 82.304688 180.84375 C 84.496094 179.277344 88.070312 179.140625 89.476562 181.441406 C 89.960938 182.375 90.207031 183.410156 90.203125 184.457031 C 90.304688 186.183594 90.300781 187.976562 91.03125 189.546875 C 91.765625 191.113281 93.507812 192.378906 95.167969 191.910156 C 98.035156 191.101562 97.757812 186.699219 99.964844 184.699219 C 101.640625 183.179688 104.226562 183.472656 106.378906 182.78125 C 108.886719 181.980469 110.769531 179.804688 111.839844 177.394531 C 112.65625 175.566406 112.644531 170.773438 114.1875 169.785156 C 116.121094 168.539062 120.519531 170.515625 122.3125 171.316406 Z M 122.3125 171.316406 "/>
<path style=" stroke:none;fill-rule:nonzero;fill:rgb(81.568627%,80.392157%,88.235294%);fill-opacity:1;" d="M 48.636719 200.351562 C 49.96875 199.996094 51.371094 200 52.699219 200.363281 C 56.921875 201.5 66.390625 204.503906 68.417969 209.078125 C 71.050781 215.007812 80.261719 224.230469 80.261719 224.230469 C 80.261719 224.230469 92.761719 236.746094 90.128906 245.308594 C 87.5 253.871094 77.628906 263.753906 77.628906 263.753906 C 77.628906 263.753906 80.261719 304.597656 67.105469 315.136719 C 53.945312 325.675781 48.683594 318.429688 48.683594 328.3125 C 48.683594 338.191406 7.894531 369.15625 0 350.050781 C 0 350.050781 3.949219 314.476562 2.632812 301.960938 C 1.335938 289.625 3.234375 212.660156 48.636719 200.351562 Z M 48.636719 200.351562 "/>
<path style=" stroke:none;fill-rule:nonzero;fill:rgb(81.568627%,80.392157%,88.235294%);fill-opacity:1;" d="M 69.734375 216.980469 C 69.734375 216.980469 109.867188 246.625 102.628906 259.140625 C 102.628906 259.140625 78.289062 271 73.023438 270.339844 C 67.761719 269.683594 47.367188 246.625 42.105469 244.648438 C 36.839844 242.671875 34.210938 207.101562 69.734375 216.980469 Z M 69.734375 216.980469 "/>
<path style=" stroke:none;fill-rule:nonzero;fill:rgb(94.901961%,94.901961%,94.901961%);fill-opacity:1;" d="M 281.53125 118.886719 C 281.53125 136.859375 266.980469 151.429688 249.03125 151.429688 C 231.082031 151.429688 216.53125 136.859375 216.53125 118.886719 C 216.53125 100.914062 231.082031 86.34375 249.03125 86.34375 C 266.980469 86.34375 281.53125 100.914062 281.53125 118.886719 Z M 281.53125 118.886719 "/>
<path style=" stroke:none;fill-rule:nonzero;fill:rgb(24.705882%,23.921569%,33.72549%);fill-opacity:1;" d="M 517.464844 76.621094 L 335.339844 76.621094 L 335.339844 38.460938 L 517.464844 38.460938 Z M 336.144531 75.816406 L 516.664062 75.816406 L 516.664062 39.265625 L 336.144531 39.265625 Z M 336.144531 75.816406 "/>
<path style=" stroke:none;fill-rule:nonzero;fill:rgb(0%,58.823529%,83.921569%);fill-opacity:1;" d="M 322.90625 46.09375 L 504.226562 46.09375 L 504.226562 83.449219 L 322.90625 83.449219 Z M 322.90625 46.09375 "/>
<path style=" stroke:none;fill-rule:nonzero;fill:rgb(0%,58.823529%,83.921569%);fill-opacity:1;" d="M 211.089844 7.632812 C 211.089844 9.183594 209.832031 10.445312 208.28125 10.445312 C 206.730469 10.445312 205.472656 9.183594 205.472656 7.632812 C 205.472656 6.078125 206.730469 4.820312 208.28125 4.820312 C 209.832031 4.820312 211.089844 6.078125 211.089844 7.632812 Z M 211.089844 7.632812 "/>
<path style=" stroke:none;fill-rule:nonzero;fill:rgb(0%,58.823529%,83.921569%);fill-opacity:1;" d="M 220.71875 7.632812 C 220.71875 9.183594 219.460938 10.445312 217.910156 10.445312 C 216.359375 10.445312 215.101562 9.183594 215.101562 7.632812 C 215.101562 6.078125 216.359375 4.820312 217.910156 4.820312 C 219.460938 4.820312 220.71875 6.078125 220.71875 7.632812 Z M 220.71875 7.632812 "/>
<path style=" stroke:none;fill-rule:nonzero;fill:rgb(0%,58.823529%,83.921569%);fill-opacity:1;" d="M 230.347656 7.632812 C 230.347656 9.183594 229.089844 10.445312 227.539062 10.445312 C 225.988281 10.445312 224.730469 9.183594 224.730469 7.632812 C 224.730469 6.078125 225.988281 4.820312 227.539062 4.820312 C 229.089844 4.820312 230.347656 6.078125 230.347656 7.632812 Z M 230.347656 7.632812 "/>
<path style=" stroke:none;fill-rule:nonzero;fill:rgb(24.705882%,23.921569%,33.72549%);fill-opacity:1;" d="M 538.03125 220.125 L 200.257812 220.125 L 200.257812 0 L 538.03125 0 Z M 201.0625 219.320312 L 537.230469 219.320312 L 537.230469 0.804688 L 201.0625 0.804688 Z M 201.0625 219.320312 "/>
<path style=" stroke:none;fill-rule:nonzero;fill:rgb(24.705882%,23.921569%,33.72549%);fill-opacity:1;" d="M 200.660156 12.183594 L 537.628906 12.183594 L 537.628906 12.988281 L 200.660156 12.988281 Z M 200.660156 12.183594 "/>
<path style=" stroke:none;fill-rule:nonzero;fill:rgb(24.705882%,23.921569%,33.72549%);fill-opacity:1;" d="M 209.085938 9.640625 C 207.3125 9.640625 205.875 8.203125 205.875 6.425781 C 205.875 4.652344 207.3125 3.214844 209.085938 3.214844 C 210.855469 3.214844 212.292969 4.652344 212.292969 6.425781 C 212.292969 8.199219 210.855469 9.636719 209.085938 9.640625 Z M 209.085938 4.015625 C 207.753906 4.015625 206.679688 5.097656 206.679688 6.425781 C 206.679688 7.757812 207.753906 8.835938 209.085938 8.835938 C 210.414062 8.835938 211.492188 7.757812 211.492188 6.425781 C 211.488281 5.097656 210.414062 4.019531 209.085938 4.015625 Z M 209.085938 4.015625 "/>
<path style=" stroke:none;fill-rule:nonzero;fill:rgb(24.705882%,23.921569%,33.72549%);fill-opacity:1;" d="M 218.710938 9.640625 C 216.941406 9.640625 215.503906 8.203125 215.503906 6.425781 C 215.503906 4.652344 216.941406 3.214844 218.710938 3.214844 C 220.484375 3.214844 221.921875 4.652344 221.921875 6.425781 C 221.917969 8.199219 220.484375 9.636719 218.710938 9.640625 Z M 218.710938 4.015625 C 217.382812 4.015625 216.304688 5.097656 216.304688 6.425781 C 216.304688 7.757812 217.382812 8.835938 218.710938 8.835938 C 220.042969 8.835938 221.121094 7.757812 221.121094 6.425781 C 221.117188 5.097656 220.042969 4.019531 218.710938 4.015625 Z M 218.710938 4.015625 "/>
<path style=" stroke:none;fill-rule:nonzero;fill:rgb(24.705882%,23.921569%,33.72549%);fill-opacity:1;" d="M 228.339844 9.640625 C 226.566406 9.640625 225.132812 8.203125 225.132812 6.425781 C 225.132812 4.652344 226.566406 3.214844 228.339844 3.214844 C 230.113281 3.214844 231.550781 4.652344 231.550781 6.425781 C 231.546875 8.199219 230.113281 9.636719 228.339844 9.640625 Z M 228.339844 4.015625 C 227.011719 4.015625 225.933594 5.097656 225.933594 6.425781 C 225.933594 7.757812 227.011719 8.835938 228.339844 8.835938 C 229.667969 8.835938 230.746094 7.757812 230.746094 6.425781 C 230.746094 5.097656 229.667969 4.019531 228.339844 4.015625 Z M 228.339844 4.015625 "/>
<path style=" stroke:none;fill-rule:nonzero;fill:rgb(24.705882%,23.921569%,33.72549%);fill-opacity:1;" d="M 306.054688 12.585938 L 306.855469 12.585938 L 306.855469 220.035156 L 306.054688 220.035156 Z M 306.054688 12.585938 "/>
<path style=" stroke:none;fill-rule:nonzero;fill:rgb(94.901961%,94.901961%,94.901961%);fill-opacity:1;" d="M 344.367188 114.582031 L 403.335938 114.582031 L 403.335938 122.613281 L 344.367188 122.613281 Z M 344.367188 114.582031 "/>
<path style=" stroke:none;fill-rule:nonzero;fill:rgb(94.901961%,94.901961%,94.901961%);fill-opacity:1;" d="M 437.035156 114.582031 L 496.003906 114.582031 L 496.003906 122.613281 L 437.035156 122.613281 Z M 437.035156 114.582031 "/>
<path style=" stroke:none;fill-rule:nonzero;fill:rgb(24.705882%,23.921569%,33.72549%);fill-opacity:1;" d="M 406.945312 119 L 347.175781 119 L 347.175781 110.164062 L 406.945312 110.164062 Z M 347.976562 118.195312 L 406.144531 118.195312 L 406.144531 110.964844 L 347.976562 110.964844 Z M 347.976562 118.195312 "/>
<path style=" stroke:none;fill-rule:nonzero;fill:rgb(94.901961%,94.901961%,94.901961%);fill-opacity:1;" d="M 344.367188 176.84375 L 403.335938 176.84375 L 403.335938 184.875 L 344.367188 184.875 Z M 344.367188 176.84375 "/>
<path style=" stroke:none;fill-rule:nonzero;fill:rgb(24.705882%,23.921569%,33.72549%);fill-opacity:1;" d="M 406.945312 181.261719 L 347.175781 181.261719 L 347.175781 172.425781 L 406.945312 172.425781 Z M 347.976562 180.457031 L 406.144531 180.457031 L 406.144531 173.226562 L 347.976562 173.226562 Z M 347.976562 180.457031 "/>
<path style=" stroke:none;fill-rule:nonzero;fill:rgb(94.901961%,94.901961%,94.901961%);fill-opacity:1;" d="M 344.566406 144.910156 L 496.203125 144.910156 L 496.203125 152.941406 L 344.566406 152.941406 Z M 344.566406 144.910156 "/>
<path style=" stroke:none;fill-rule:nonzero;fill:rgb(24.705882%,23.921569%,33.72549%);fill-opacity:1;" d="M 499.8125 150.128906 L 347.375 150.128906 L 347.375 141.292969 L 499.8125 141.292969 Z M 348.175781 149.328125 L 499.011719 149.328125 L 499.011719 142.097656 L 348.175781 142.097656 Z M 348.175781 149.328125 "/>
<path style=" stroke:none;fill-rule:nonzero;fill:rgb(24.705882%,23.921569%,33.72549%);fill-opacity:1;" d="M 499.613281 119 L 439.839844 119 L 439.839844 110.164062 L 499.613281 110.164062 Z M 440.644531 118.195312 L 498.8125 118.195312 L 498.8125 110.964844 L 440.644531 110.964844 Z M 440.644531 118.195312 "/>
<path style=" stroke:none;fill-rule:nonzero;fill:rgb(24.705882%,23.921569%,33.72549%);fill-opacity:1;" d="M 254.53125 142.917969 C 236.304688 142.917969 221.53125 128.125 221.53125 109.875 C 221.53125 91.625 236.304688 76.832031 254.53125 76.832031 C 272.757812 76.832031 287.53125 91.625 287.53125 109.875 C 287.511719 128.117188 272.75 142.898438 254.53125 142.917969 Z M 254.53125 77.832031 C 236.859375 77.832031 222.53125 92.179688 222.53125 109.875 C 222.53125 127.570312 236.859375 141.917969 254.53125 141.917969 C 272.203125 141.917969 286.53125 127.570312 286.53125 109.875 C 286.511719 92.1875 272.195312 77.851562 254.53125 77.832031 Z M 254.53125 77.832031 "/>
<path style=" stroke:none;fill-rule:nonzero;fill:rgb(24.705882%,23.921569%,33.72549%);fill-opacity:1;" d="M 374.03125 372.722656 L 515.53125 372.722656 L 515.53125 373.722656 L 374.03125 373.722656 Z M 374.03125 372.722656 "/>
</g>
</svg>
